<?xml version="1.0" encoding="UTF-8"?>
<svg width="1200pt" height="1200pt" version="1.1" viewBox="0 0 1200 1200" xmlns="http://www.w3.org/2000/svg">
 <g>
  <path d="m935.91 192.01h-671.83c-39.738 0-72.078 32.336-72.078 72.082v671.82c0 39.746 32.336 72.082 72.078 72.082h671.83c39.738 0 72.078-32.336 72.078-72.082l-0.003906-671.82c0-39.746-32.336-72.082-72.078-72.082zm39.438 743.9c0 21.754-17.691 39.445-39.438 39.445h-671.83c-21.746 0-39.438-17.691-39.438-39.445v-671.82c0-21.754 17.691-39.445 39.438-39.445h671.83c21.746 0 39.438 17.691 39.438 39.445z"/>
  <path d="m910.07 273.61h-620.15c-9.0117 0-16.32 7.3008-16.32 16.32v318.23c0 9.0195 7.3086 16.32 16.32 16.32h73.438l0.003907 138.71c0 9.0195 7.3086 16.32 16.32 16.32h92.473v130.55c0 9.0195 7.3086 16.32 16.32 16.32h223.04c9.0117 0 16.32-7.2969 16.32-16.32v-130.55h92.473c9.0117 0 16.32-7.3008 16.32-16.32v-138.71h73.438c9.0117 0 16.32-7.2969 16.32-16.32l0.003906-318.23c0-9.0195-7.3086-16.32-16.32-16.32zm-16.32 318.23h-73.438c-9.0117 0-16.32 7.3008-16.32 16.32v138.72h-92.477c-9.0117 0-16.32 7.3008-16.32 16.32v130.56h-190.4v-130.56c0-9.0195-7.3086-16.32-16.32-16.32h-92.477v-138.71c0-9.0195-7.3086-16.32-16.32-16.32h-73.438v-285.59h587.51z"/>
  <path d="m385.46 454.49c9.0117 0 16.32-7.3008 16.32-16.32v-91.418c0-9.0195-7.3086-16.32-16.32-16.32-9.0117 0-16.32 7.3008-16.32 16.32v91.418c0 9.0234 7.3086 16.32 16.32 16.32z"/>
  <path d="m471.28 454.49c9.0117 0 16.32-7.3008 16.32-16.32v-91.418c0-9.0195-7.3086-16.32-16.32-16.32-9.0117 0-16.32 7.3008-16.32 16.32v91.418c0 9.0234 7.3047 16.32 16.32 16.32z"/>
  <path d="m557.09 454.49c9.0117 0 16.32-7.3008 16.32-16.32v-91.418c0-9.0195-7.3086-16.32-16.32-16.32-9.0117 0-16.32 7.3008-16.32 16.32v91.418c0 9.0234 7.3086 16.32 16.32 16.32z"/>
  <path d="m642.91 454.49c9.0117 0 16.32-7.3008 16.32-16.32v-91.418c0-9.0195-7.3086-16.32-16.32-16.32-9.0117 0-16.32 7.3008-16.32 16.32v91.418c0 9.0234 7.3086 16.32 16.32 16.32z"/>
  <path d="m728.72 454.49c9.0117 0 16.32-7.3008 16.32-16.32v-91.418c0-9.0195-7.3086-16.32-16.32-16.32-9.0117 0-16.32 7.3008-16.32 16.32v91.418c0.003906 9.0234 7.3086 16.32 16.32 16.32z"/>
  <path d="m814.54 454.49c9.0117 0 16.32-7.3008 16.32-16.32v-91.418c0-9.0195-7.3086-16.32-16.32-16.32-9.0117 0-16.32 7.3008-16.32 16.32v91.418c0 9.0234 7.3086 16.32 16.32 16.32z"/>
 </g>
</svg>
